<svg id="Layer_1" data-name="Layer 1" xmlns="http://www.w3.org/2000/svg" viewBox="0 0 183.41 44.27">
<defs>
<style>
.cls-1{fill:#ffc73b;}
.cls-2{fill:#6769f6;}
.cls-3,.cls-4{fill:none;}
.cls-4{stroke:#450180;stroke-width:5px;}
</style>
</defs>
<title>Favicon</title>
<path id="Polygon_1" data-name="Polygon 1" class="cls-1" d="M313.59,108.11a5.07,5.07,0,0,1,6.94-1.77,5,5,0,0,1,1.77,1.77l18.11,30.56a5.06,5.06,0,0,1-1.78,6.93,5,5,0,0,1-2.58.71H299.84a5.07,5.07,0,0,1-4.36-7.64Z" transform="translate(-157.7 -103.83)"/>
<path id="Path_1" data-name="Path 1" class="cls-2" d="M236.75,103.83H281v44.28H236.75Z" transform="translate(-157.7 -103.83)"/>
<g id="Rectangle_2" data-name="Rectangle 2">
<path class="cls-3" d="M179.63,104h20.24A21.93,21.93,0,0,1,221.8,126h0a21.93,21.93,0,0,1-21.93,21.93H179.63A21.93,21.93,0,0,1,157.7,126h0A21.93,21.93,0,0,1,179.63,104Z" transform="translate(-157.7 -103.83)"/>
<path class="cls-4" d="M179.63,108.26h20.24A17.71,17.71,0,0,1,217.58,126h0a17.71,17.71,0,0,1-17.71,17.71H179.63A17.71,17.71,0,0,1,161.92,126h0A17.71,17.71,0,0,1,179.63,108.26Z" transform="translate(-157.7 -103.83)"/></g>
</svg>