<?xml version="1.0" encoding="UTF-8" standalone="no"?>
<!-- Generator: Adobe Illustrator 23.0.1, SVG Export Plug-In . SVG Version: 6.00 Build 0)  -->

<svg
   xmlns:ns="&amp;ns_sfw;"
   xmlns:pdfx="http://ns.adobe.com/pdfx/1.3/"
   xmlns:pdf="http://ns.adobe.com/pdf/1.3/"
   xmlns:xmpG="http://ns.adobe.com/xap/1.0/g/"
   xmlns:stDim="http://ns.adobe.com/xap/1.0/sType/Dimensions#"
   xmlns:xmpTPg="http://ns.adobe.com/xap/1.0/t/pg/"
   xmlns:illustrator="http://ns.adobe.com/illustrator/1.0/"
   xmlns:stEvt="http://ns.adobe.com/xap/1.0/sType/ResourceEvent#"
   xmlns:stRef="http://ns.adobe.com/xap/1.0/sType/ResourceRef#"
   xmlns:xmpMM="http://ns.adobe.com/xap/1.0/mm/"
   xmlns:xmpGImg="http://ns.adobe.com/xap/1.0/g/img/"
   xmlns:xmp="http://ns.adobe.com/xap/1.0/"
   xmlns:x="adobe:ns:meta/"
   xmlns:dc="http://purl.org/dc/elements/1.1/"
   xmlns:cc="http://creativecommons.org/ns#"
   xmlns:rdf="http://www.w3.org/1999/02/22-rdf-syntax-ns#"
   xmlns:svg="http://www.w3.org/2000/svg"
   xmlns="http://www.w3.org/2000/svg"
   xmlns:xlink="http://www.w3.org/1999/xlink"
   xmlns:sodipodi="http://sodipodi.sourceforge.net/DTD/sodipodi-0.dtd"
   xmlns:inkscape="http://www.inkscape.org/namespaces/inkscape"
   version="1.1"
   id="Layer_1"
   x="0px"
   y="0px"
   width="1920px"
   height="1080px"
   viewBox="0 0 1920 1080"
   style="enable-background:new 0 0 1920 1080;"
   xml:space="preserve"
   sodipodi:docname="laptop.svg"
   inkscape:version="0.92.4 (5da689c313, 2019-01-14)"><defs
   id="defs4055" /><sodipodi:namedview
   pagecolor="#ffffff"
   bordercolor="#666666"
   borderopacity="1"
   objecttolerance="10"
   gridtolerance="10"
   guidetolerance="10"
   inkscape:pageopacity="0"
   inkscape:pageshadow="2"
   inkscape:window-width="1920"
   inkscape:window-height="1051"
   id="namedview4053"
   showgrid="false"
   inkscape:zoom="1.6236571"
   inkscape:cx="1247.7921"
   inkscape:cy="563.20093"
   inkscape:window-x="-9"
   inkscape:window-y="-9"
   inkscape:window-maximized="1"
   inkscape:current-layer="Layer_1" />
<style
   type="text/css"
   id="style3885">
	.st0{opacity:0.2;fill:none;stroke:#6769F6;stroke-miterlimit:10;enable-background:new    ;}
	.st1{opacity:0.5;}
	.st2{fill:#AAB0BC;}
	.st3{fill:#2F3C4E;}
	.st4{fill:#DDE1E9;}
	.st5{fill:none;stroke:#D1D5DB;stroke-width:0.5;stroke-miterlimit:10;}
	.st6{fill:#383838;}
	.st7{fill:#495465;}
	.st8{opacity:0.25;fill:#FFFFFF;enable-background:new    ;}
	.st9{fill:#FFFFFF;}
	.st10{fill:none;stroke:#FFC73B;stroke-width:0.818;stroke-miterlimit:10;}
	.st11{fill:#FFC73B;}
</style>
<metadata
   id="metadata3887">
	<x:xmpmeta
   x:xmptk="Adobe XMP Core 5.6-c145 79.163499, 2018/08/13-16:40:22        ">
		
	<metadata><rdf:RDF>
			
				<rdf:Description
   rdf:about="">
				<dc:format>image/svg+xml</dc:format>
				<dc:title>
					<rdf:Alt>
						<rdf:li>Isometric Laptop</rdf:li>
					</rdf:Alt>
				</dc:title>
				<xmp:CreatorTool>Adobe Illustrator CC 23.0 (Windows)</xmp:CreatorTool>
				<xmp:CreateDate>2020-03-23T12:35:22Z</xmp:CreateDate>
				<xmp:ModifyDate>2020-03-23T12:35:22Z</xmp:ModifyDate>
				<xmp:MetadataDate>2020-03-23T12:35:22Z</xmp:MetadataDate>
				<xmp:Thumbnails>
					<rdf:Alt>
						<rdf:li
   rdf:parseType="Resource">
							<xmpGImg:width>256</xmpGImg:width>
							<xmpGImg:height>144</xmpGImg:height>
							<xmpGImg:format>JPEG</xmpGImg:format>
							<xmpGImg:image>/9j/4AAQSkZJRgABAgEASABIAAD/7QAsUGhvdG9zaG9wIDMuMAA4QklNA+0AAAAAABAASAAAAAEA
AQBIAAAAAQAB/+4ADkFkb2JlAGTAAAAAAf/bAIQABgQEBAUEBgUFBgkGBQYJCwgGBggLDAoKCwoK
DBAMDAwMDAwQDA4PEA8ODBMTFBQTExwbGxscHx8fHx8fHx8fHwEHBwcNDA0YEBAYGhURFRofHx8f
Hx8fHx8fHx8fHx8fHx8fHx8fHx8fHx8fHx8fHx8fHx8fHx8fHx8fHx8fHx8f/8AAEQgAkAEAAwER
AAIRAQMRAf/EAaIAAAAHAQEBAQEAAAAAAAAAAAQFAwIGAQAHCAkKCwEAAgIDAQEBAQEAAAAAAAAA
AQACAwQFBgcICQoLEAACAQMDAgQCBgcDBAIGAnMBAgMRBAAFIRIxQVEGE2EicYEUMpGhBxWxQiPB
UtHhMxZi8CRygvElQzRTkqKyY3PCNUQnk6OzNhdUZHTD0uIIJoMJChgZhJRFRqS0VtNVKBry4/PE
1OT0ZXWFlaW1xdXl9WZ2hpamtsbW5vY3R1dnd4eXp7fH1+f3OEhYaHiImKi4yNjo+Ck5SVlpeYmZ
qbnJ2en5KjpKWmp6ipqqusra6voRAAICAQIDBQUEBQYECAMDbQEAAhEDBCESMUEFURNhIgZxgZEy
obHwFMHR4SNCFVJicvEzJDRDghaSUyWiY7LCB3PSNeJEgxdUkwgJChgZJjZFGidkdFU38qOzwygp
0+PzhJSktMTU5PRldYWVpbXF1eX1RlZmdoaWprbG1ub2R1dnd4eXp7fH1+f3OEhYaHiImKi4yNjo
+DlJWWl5iZmpucnZ6fkqOkpaanqKmqq6ytrq+v/aAAwDAQACEQMRAD8A9KZa1uxV2KuxV2KuxV2K
uxV2KuxV2KuxV2KuxV2KuxV2KuxV2KuxV2KuxV2KuxV2KuxV2KuxV2KuxV2KuxV2KuxV2KuxV2Ku
xV2KuxV2KuxV2KuxV2KuxV2KuxV2KuxV2KuxV2KuxV2KuxV2KuxV2KuxV2KuxV2KuxV2KuxV2Kux
V2KuxV2KuxV2KuxV2KuxV2KuxV2KuxV2KuxV2KuxV2KuxV2KuxV2KuxV2KuxV2KuxV2KuxV2KuxV
2KuxV2KuxV2KuxV2KuxV2KuxV2KuxV2KuxV2KuxV2KuxV2KuxV2KuxV2KuxV2KuxV2KuxV2KuxV2
KuxV2KuxV2KuxV2KuxV2KuxV2KuxV2KuxV2KuxV2KuxV2KuxV2KuxV2KoXU9V03S7KS+1G5jtLSI
VkmmYIo9qnuew74q8c81fnpqOpSSad5ItiEJKHWbhPxhiYfi4/2OTEe9iZPSvyrtNafyVZNrFzNd
XztKz3NwSzsGkYrua7U6e2VyluziGSMKMR4GmFWsUOxV2KuxV2KuxV2KuxV2KuxV2KuxV2KuxV2K
uxV2KuxV2KuxV2KuxV2KuxV2KuxVpmVVLMQqqKknYADFXmHnP89NF0yR9O8txjXNVFVMiH/RIj4t
IPt/JDT/AChkhFBkwGx8pefPzE1RbzWppLzgfhi/u7WAHegXZRt9J/ysJkAgAl7V5Q/Kfy/oUccl
wi3l2oH2h+6UjwU/ap/lfcMqlMlsEWcgACg6ZBklkn943zP68tDBbih2KuxV2KuxV2KuxV2KuxV2
KuxV2KuxV2KuxV2KuxV2KuxV2KuxV2KuxV2KuxVjXn3z7pHkzSF1DUEkmeZzFa20QHKSTiW6nZVF
Nz+vCBak08V1PW/zE/Me7FpIHs9Klb93pNpX4h/xa43f3rt7Lk9gx3L0vyP+RmnabHHNq4BcUItI
z3/y3H/Gv35VLIzEHqlraW1pAlvbRLDAgokaAKo+gZWzVcVdiqVyMPUau25/XloDBrFDsVdirsVd
irsVdirsVdirsVdirsVdirsVdirsVdirsVdirsVdirsVdirsVcT2HXFXi/8AzkyD+htCqf8Aj7f/
AJNjLIMZM5/I+3hHlOWcIBM9wyNJTcqsaED72OU5ObZDkz+4uEhXkxoKqCx6Au3EfjmLmzjGLPl9
poNsIGXJfGSV3NTUivyJ8MshdbsZLsmhxNNz0xVKjIjuxU1FTltMHUHbY4odXx+/FXYq7FXYq7FX
Yq7FXYq7FXYq7FXYq7FXYq7FXYq7FXYq7FXYq7FXYq4n7z0xVwFMVeMf85Nf8cXQv+Yt/wDk2MnB
jJnn5If8oY//ADFP/wAmo8qyc2yHJnU9us1UdQyfC2/ijch0zEzYRk2IsbfYbboT4dwqqvEUrXqa
/M1y+MaDAm2L+bvzG8v+Wkkjmc3eoRxmX6jAV5hR+1IzEKg27mp7A5OMCWJlTxjzZ5z81+cbj6lF
I4tmcGLTLNeXqQv8SStFy5vTYkzcVAIPEHLoxAaySXovknTPM+m2vHVr83CcQILd/wB7LGQdy9wa
c6+HHbASkMtiuwdn298CUSCCNtwcCHDwxV2KuxV2KuxV2KuxV2KuxV2KuxV2KuxV2KuxV2KuxV2K
uxV2KuxVr9ofI/wxVvFXj3/OR1ld3un+XrWzhe4uZbxxHDEpd2Pp9lG+Tgxk9F/KnRNQ0fyqLW/U
R3DzNKYwwYqGRAA1Nq/DlUzu2R5J/rvmTRtCt1m1K5WH1Twgi+1JK/8ALGg+Jj+rvtkQCUk08b82
/nFq+ro1tojHS7KQtGk/JRM0yN/dvIpbiGWnwwgncfGNxl0cdc2BklPlz8uvMGrTreX6nSbLmZlE
safWi7/bMcdP3NafaclxQHJGTEB6lovl7R9Et/Q023ES/tOSXkapJ+J2JY7nxyBLOkweREUs7BVH
UnbArUcV3c/3YMMX+/XHxH/VU9P9l92SquaEzghWGJY1JIXuTUn55EquPUfdireKuxV2KuxV2Kux
V2KuxV2KuxV2KuxV2KuxV2KuxV2KuxV2KuxVo9QcVbxVBappUd/Gn7xoLiE8oLmPjzQnrTkGFD3B
FDhBVC3F3qdnp9zbwlLK6uGLLqSx+qisQF5NGSN+K99sJhe4TbyK48h+e9U1+UasyXkU6BZtTeQG
Ix1qtKASuyHcLxVKjpxOSsBjRZ/5c8jaPopFxQ3molFR72YCtE+yEjHwRhaUHEZElIDIjkUrYmaf
a3HMd36IPp7/AEYaVFwafEriWX95MOjHov8Aqjt+vG+5CKwK7FWupr4bYq3irsVdirsVdirsVdir
sVdirsVdirsVdirsVdirsVdirsVdirsVdirXT5Yq3irioYUIqPDG1S+bS+BL2bemx3MR3jP0dvoy
dg81Qwmn5em1tJ638oFV/wCD6U+ePCtomLTWk+K7bkP98L9j/Zd2+nb2wXSo9VVQFUUA6AZFW8Vd
irVa9OnjireKuxV2KuxV2KuxV2KuxV2KuxV2KuxV2KuxV2KuxV2KuxV2KuxV2KuxV2Kup4bYq18X
hX5Yq7l7H7saV3JfEYaV3JfEYKV3Ie/3Y0rqt4U+eKup474q3irsVdirsVdirsVdirsVdirsVdir
sVdirsVdirsVdirsVdirsVdirsVdirsVdirsVdirsVdirsVdirsVdirsVdirsVdirsVdirsVdirs
VdirsVdirsVdirsVdirsVdirsVdirsVdirsVdirsVdirsVdirsVdirsVdirsVdirsVdirsVdirsV
dirsVdirsVdirsVdirsVdirsVdirsVdirsVdirsVdirsVdirsVdirsVdirsVdirsVdirsVdirsVd
irsVdirsVdirsVdirsVdirsVdirsVdirsVdirsVdirsVdirsVdirsVdirsVdirsVdirsVdirsVdi
rsVdirsVdirsVdirsVdirsVdirsVdirsVdirsVdirsVdirsVdirsVdirsVdirsVdirsVdirsVdir
sVf/2Q==
								</xmpGImg:image>
						</rdf:li>
					</rdf:Alt>
				</xmp:Thumbnails>
				<xmpMM:RenditionClass>proof:pdf</xmpMM:RenditionClass>
				<xmpMM:OriginalDocumentID>uuid:65E6390686CF11DBA6E2D887CEACB407</xmpMM:OriginalDocumentID>
				<xmpMM:DocumentID>xmp.did:d0acb392-cc8b-0e4f-a4d6-ca21dfcbc893</xmpMM:DocumentID>
				<xmpMM:InstanceID>xmp.iid:d0acb392-cc8b-0e4f-a4d6-ca21dfcbc893</xmpMM:InstanceID>
				<xmpMM:DerivedFrom
   rdf:parseType="Resource">
					<stRef:instanceID>xmp.iid:888ef1cf-82bc-3c4b-b741-561106dce496</stRef:instanceID>
					<stRef:documentID>xmp.did:888ef1cf-82bc-3c4b-b741-561106dce496</stRef:documentID>
					<stRef:originalDocumentID>uuid:65E6390686CF11DBA6E2D887CEACB407</stRef:originalDocumentID>
					<stRef:renditionClass>proof:pdf</stRef:renditionClass>
				</xmpMM:DerivedFrom>
				<xmpMM:History>
					<rdf:Seq>
						<rdf:li
   rdf:parseType="Resource">
							<stEvt:action>saved</stEvt:action>
							<stEvt:instanceID>xmp.iid:86d7b47a-0a39-8b40-95d1-b125f4abc4d6</stEvt:instanceID>
							<stEvt:when>2020-03-23T03:51:21Z</stEvt:when>
							<stEvt:softwareAgent>Adobe Illustrator CC 23.0 (Windows)</stEvt:softwareAgent>
							<stEvt:changed>/</stEvt:changed>
						</rdf:li>
						<rdf:li
   rdf:parseType="Resource">
							<stEvt:action>saved</stEvt:action>
							<stEvt:instanceID>xmp.iid:d0acb392-cc8b-0e4f-a4d6-ca21dfcbc893</stEvt:instanceID>
							<stEvt:when>2020-03-23T12:35:22Z</stEvt:when>
							<stEvt:softwareAgent>Adobe Illustrator CC 23.0 (Windows)</stEvt:softwareAgent>
							<stEvt:changed>/</stEvt:changed>
						</rdf:li>
					</rdf:Seq>
				</xmpMM:History>
				<illustrator:StartupProfile>Web</illustrator:StartupProfile>
				<xmpTPg:NPages>1</xmpTPg:NPages>
				<xmpTPg:HasVisibleTransparency>True</xmpTPg:HasVisibleTransparency>
				<xmpTPg:HasVisibleOverprint>False</xmpTPg:HasVisibleOverprint>
				<xmpTPg:MaxPageSize
   rdf:parseType="Resource">
					<stDim:w>1920.000000</stDim:w>
					<stDim:h>1080.000000</stDim:h>
					<stDim:unit>Pixels</stDim:unit>
				</xmpTPg:MaxPageSize>
				<xmpTPg:PlateNames>
					<rdf:Seq>
						<rdf:li>Cyan</rdf:li>
						<rdf:li>Magenta</rdf:li>
						<rdf:li>Yellow</rdf:li>
						<rdf:li>Black</rdf:li>
					</rdf:Seq>
				</xmpTPg:PlateNames>
				<xmpTPg:SwatchGroups>
					<rdf:Seq>
						<rdf:li
   rdf:parseType="Resource">
							<xmpG:groupName>Default Swatch Group</xmpG:groupName>
							<xmpG:groupType>0</xmpG:groupType>
							<xmpG:Colorants>
								<rdf:Seq>
									<rdf:li
   rdf:parseType="Resource">
										<xmpG:swatchName>White</xmpG:swatchName>
										<xmpG:mode>RGB</xmpG:mode>
										<xmpG:type>PROCESS</xmpG:type>
										<xmpG:red>255</xmpG:red>
										<xmpG:green>255</xmpG:green>
										<xmpG:blue>255</xmpG:blue>
									</rdf:li>
									<rdf:li
   rdf:parseType="Resource">
										<xmpG:swatchName>Black</xmpG:swatchName>
										<xmpG:mode>RGB</xmpG:mode>
										<xmpG:type>PROCESS</xmpG:type>
										<xmpG:red>0</xmpG:red>
										<xmpG:green>0</xmpG:green>
										<xmpG:blue>0</xmpG:blue>
									</rdf:li>
									<rdf:li
   rdf:parseType="Resource">
										<xmpG:swatchName>RGB Red</xmpG:swatchName>
										<xmpG:mode>RGB</xmpG:mode>
										<xmpG:type>PROCESS</xmpG:type>
										<xmpG:red>255</xmpG:red>
										<xmpG:green>0</xmpG:green>
										<xmpG:blue>0</xmpG:blue>
									</rdf:li>
									<rdf:li
   rdf:parseType="Resource">
										<xmpG:swatchName>RGB Yellow</xmpG:swatchName>
										<xmpG:mode>RGB</xmpG:mode>
										<xmpG:type>PROCESS</xmpG:type>
										<xmpG:red>255</xmpG:red>
										<xmpG:green>255</xmpG:green>
										<xmpG:blue>0</xmpG:blue>
									</rdf:li>
									<rdf:li
   rdf:parseType="Resource">
										<xmpG:swatchName>RGB Green</xmpG:swatchName>
										<xmpG:mode>RGB</xmpG:mode>
										<xmpG:type>PROCESS</xmpG:type>
										<xmpG:red>0</xmpG:red>
										<xmpG:green>255</xmpG:green>
										<xmpG:blue>0</xmpG:blue>
									</rdf:li>
									<rdf:li
   rdf:parseType="Resource">
										<xmpG:swatchName>RGB Cyan</xmpG:swatchName>
										<xmpG:mode>RGB</xmpG:mode>
										<xmpG:type>PROCESS</xmpG:type>
										<xmpG:red>0</xmpG:red>
										<xmpG:green>255</xmpG:green>
										<xmpG:blue>255</xmpG:blue>
									</rdf:li>
									<rdf:li
   rdf:parseType="Resource">
										<xmpG:swatchName>RGB Blue</xmpG:swatchName>
										<xmpG:mode>RGB</xmpG:mode>
										<xmpG:type>PROCESS</xmpG:type>
										<xmpG:red>0</xmpG:red>
										<xmpG:green>0</xmpG:green>
										<xmpG:blue>255</xmpG:blue>
									</rdf:li>
									<rdf:li
   rdf:parseType="Resource">
										<xmpG:swatchName>RGB Magenta</xmpG:swatchName>
										<xmpG:mode>RGB</xmpG:mode>
										<xmpG:type>PROCESS</xmpG:type>
										<xmpG:red>255</xmpG:red>
										<xmpG:green>0</xmpG:green>
										<xmpG:blue>255</xmpG:blue>
									</rdf:li>
									<rdf:li
   rdf:parseType="Resource">
										<xmpG:swatchName>R=193 G=39 B=45</xmpG:swatchName>
										<xmpG:mode>RGB</xmpG:mode>
										<xmpG:type>PROCESS</xmpG:type>
										<xmpG:red>193</xmpG:red>
										<xmpG:green>39</xmpG:green>
										<xmpG:blue>45</xmpG:blue>
									</rdf:li>
									<rdf:li
   rdf:parseType="Resource">
										<xmpG:swatchName>R=237 G=28 B=36</xmpG:swatchName>
										<xmpG:mode>RGB</xmpG:mode>
										<xmpG:type>PROCESS</xmpG:type>
										<xmpG:red>237</xmpG:red>
										<xmpG:green>28</xmpG:green>
										<xmpG:blue>36</xmpG:blue>
									</rdf:li>
									<rdf:li
   rdf:parseType="Resource">
										<xmpG:swatchName>R=241 G=90 B=36</xmpG:swatchName>
										<xmpG:mode>RGB</xmpG:mode>
										<xmpG:type>PROCESS</xmpG:type>
										<xmpG:red>241</xmpG:red>
										<xmpG:green>90</xmpG:green>
										<xmpG:blue>36</xmpG:blue>
									</rdf:li>
									<rdf:li
   rdf:parseType="Resource">
										<xmpG:swatchName>R=247 G=147 B=30</xmpG:swatchName>
										<xmpG:mode>RGB</xmpG:mode>
										<xmpG:type>PROCESS</xmpG:type>
										<xmpG:red>247</xmpG:red>
										<xmpG:green>147</xmpG:green>
										<xmpG:blue>30</xmpG:blue>
									</rdf:li>
									<rdf:li
   rdf:parseType="Resource">
										<xmpG:swatchName>R=251 G=176 B=59</xmpG:swatchName>
										<xmpG:mode>RGB</xmpG:mode>
										<xmpG:type>PROCESS</xmpG:type>
										<xmpG:red>251</xmpG:red>
										<xmpG:green>176</xmpG:green>
										<xmpG:blue>59</xmpG:blue>
									</rdf:li>
									<rdf:li
   rdf:parseType="Resource">
										<xmpG:swatchName>R=252 G=238 B=33</xmpG:swatchName>
										<xmpG:mode>RGB</xmpG:mode>
										<xmpG:type>PROCESS</xmpG:type>
										<xmpG:red>252</xmpG:red>
										<xmpG:green>238</xmpG:green>
										<xmpG:blue>33</xmpG:blue>
									</rdf:li>
									<rdf:li
   rdf:parseType="Resource">
										<xmpG:swatchName>R=217 G=224 B=33</xmpG:swatchName>
										<xmpG:mode>RGB</xmpG:mode>
										<xmpG:type>PROCESS</xmpG:type>
										<xmpG:red>217</xmpG:red>
										<xmpG:green>224</xmpG:green>
										<xmpG:blue>33</xmpG:blue>
									</rdf:li>
									<rdf:li
   rdf:parseType="Resource">
										<xmpG:swatchName>R=140 G=198 B=63</xmpG:swatchName>
										<xmpG:mode>RGB</xmpG:mode>
										<xmpG:type>PROCESS</xmpG:type>
										<xmpG:red>140</xmpG:red>
										<xmpG:green>198</xmpG:green>
										<xmpG:blue>63</xmpG:blue>
									</rdf:li>
									<rdf:li
   rdf:parseType="Resource">
										<xmpG:swatchName>R=57 G=181 B=74</xmpG:swatchName>
										<xmpG:mode>RGB</xmpG:mode>
										<xmpG:type>PROCESS</xmpG:type>
										<xmpG:red>57</xmpG:red>
										<xmpG:green>181</xmpG:green>
										<xmpG:blue>74</xmpG:blue>
									</rdf:li>
									<rdf:li
   rdf:parseType="Resource">
										<xmpG:swatchName>R=0 G=146 B=69</xmpG:swatchName>
										<xmpG:mode>RGB</xmpG:mode>
										<xmpG:type>PROCESS</xmpG:type>
										<xmpG:red>0</xmpG:red>
										<xmpG:green>146</xmpG:green>
										<xmpG:blue>69</xmpG:blue>
									</rdf:li>
									<rdf:li
   rdf:parseType="Resource">
										<xmpG:swatchName>R=0 G=104 B=55</xmpG:swatchName>
										<xmpG:mode>RGB</xmpG:mode>
										<xmpG:type>PROCESS</xmpG:type>
										<xmpG:red>0</xmpG:red>
										<xmpG:green>104</xmpG:green>
										<xmpG:blue>55</xmpG:blue>
									</rdf:li>
									<rdf:li
   rdf:parseType="Resource">
										<xmpG:swatchName>R=34 G=181 B=115</xmpG:swatchName>
										<xmpG:mode>RGB</xmpG:mode>
										<xmpG:type>PROCESS</xmpG:type>
										<xmpG:red>34</xmpG:red>
										<xmpG:green>181</xmpG:green>
										<xmpG:blue>115</xmpG:blue>
									</rdf:li>
									<rdf:li
   rdf:parseType="Resource">
										<xmpG:swatchName>R=0 G=169 B=157</xmpG:swatchName>
										<xmpG:mode>RGB</xmpG:mode>
										<xmpG:type>PROCESS</xmpG:type>
										<xmpG:red>0</xmpG:red>
										<xmpG:green>169</xmpG:green>
										<xmpG:blue>157</xmpG:blue>
									</rdf:li>
									<rdf:li
   rdf:parseType="Resource">
										<xmpG:swatchName>R=41 G=171 B=226</xmpG:swatchName>
										<xmpG:mode>RGB</xmpG:mode>
										<xmpG:type>PROCESS</xmpG:type>
										<xmpG:red>41</xmpG:red>
										<xmpG:green>171</xmpG:green>
										<xmpG:blue>226</xmpG:blue>
									</rdf:li>
									<rdf:li
   rdf:parseType="Resource">
										<xmpG:swatchName>R=0 G=113 B=188</xmpG:swatchName>
										<xmpG:mode>RGB</xmpG:mode>
										<xmpG:type>PROCESS</xmpG:type>
										<xmpG:red>0</xmpG:red>
										<xmpG:green>113</xmpG:green>
										<xmpG:blue>188</xmpG:blue>
									</rdf:li>
									<rdf:li
   rdf:parseType="Resource">
										<xmpG:swatchName>R=46 G=49 B=146</xmpG:swatchName>
										<xmpG:mode>RGB</xmpG:mode>
										<xmpG:type>PROCESS</xmpG:type>
										<xmpG:red>46</xmpG:red>
										<xmpG:green>49</xmpG:green>
										<xmpG:blue>146</xmpG:blue>
									</rdf:li>
									<rdf:li
   rdf:parseType="Resource">
										<xmpG:swatchName>R=27 G=20 B=100</xmpG:swatchName>
										<xmpG:mode>RGB</xmpG:mode>
										<xmpG:type>PROCESS</xmpG:type>
										<xmpG:red>27</xmpG:red>
										<xmpG:green>20</xmpG:green>
										<xmpG:blue>100</xmpG:blue>
									</rdf:li>
									<rdf:li
   rdf:parseType="Resource">
										<xmpG:swatchName>R=102 G=45 B=145</xmpG:swatchName>
										<xmpG:mode>RGB</xmpG:mode>
										<xmpG:type>PROCESS</xmpG:type>
										<xmpG:red>102</xmpG:red>
										<xmpG:green>45</xmpG:green>
										<xmpG:blue>145</xmpG:blue>
									</rdf:li>
									<rdf:li
   rdf:parseType="Resource">
										<xmpG:swatchName>R=147 G=39 B=143</xmpG:swatchName>
										<xmpG:mode>RGB</xmpG:mode>
										<xmpG:type>PROCESS</xmpG:type>
										<xmpG:red>147</xmpG:red>
										<xmpG:green>39</xmpG:green>
										<xmpG:blue>143</xmpG:blue>
									</rdf:li>
									<rdf:li
   rdf:parseType="Resource">
										<xmpG:swatchName>R=158 G=0 B=93</xmpG:swatchName>
										<xmpG:mode>RGB</xmpG:mode>
										<xmpG:type>PROCESS</xmpG:type>
										<xmpG:red>158</xmpG:red>
										<xmpG:green>0</xmpG:green>
										<xmpG:blue>93</xmpG:blue>
									</rdf:li>
									<rdf:li
   rdf:parseType="Resource">
										<xmpG:swatchName>R=212 G=20 B=90</xmpG:swatchName>
										<xmpG:mode>RGB</xmpG:mode>
										<xmpG:type>PROCESS</xmpG:type>
										<xmpG:red>212</xmpG:red>
										<xmpG:green>20</xmpG:green>
										<xmpG:blue>90</xmpG:blue>
									</rdf:li>
									<rdf:li
   rdf:parseType="Resource">
										<xmpG:swatchName>R=237 G=30 B=121</xmpG:swatchName>
										<xmpG:mode>RGB</xmpG:mode>
										<xmpG:type>PROCESS</xmpG:type>
										<xmpG:red>237</xmpG:red>
										<xmpG:green>30</xmpG:green>
										<xmpG:blue>121</xmpG:blue>
									</rdf:li>
									<rdf:li
   rdf:parseType="Resource">
										<xmpG:swatchName>R=199 G=178 B=153</xmpG:swatchName>
										<xmpG:mode>RGB</xmpG:mode>
										<xmpG:type>PROCESS</xmpG:type>
										<xmpG:red>199</xmpG:red>
										<xmpG:green>178</xmpG:green>
										<xmpG:blue>153</xmpG:blue>
									</rdf:li>
									<rdf:li
   rdf:parseType="Resource">
										<xmpG:swatchName>R=153 G=134 B=117</xmpG:swatchName>
										<xmpG:mode>RGB</xmpG:mode>
										<xmpG:type>PROCESS</xmpG:type>
										<xmpG:red>153</xmpG:red>
										<xmpG:green>134</xmpG:green>
										<xmpG:blue>117</xmpG:blue>
									</rdf:li>
									<rdf:li
   rdf:parseType="Resource">
										<xmpG:swatchName>R=115 G=99 B=87</xmpG:swatchName>
										<xmpG:mode>RGB</xmpG:mode>
										<xmpG:type>PROCESS</xmpG:type>
										<xmpG:red>115</xmpG:red>
										<xmpG:green>99</xmpG:green>
										<xmpG:blue>87</xmpG:blue>
									</rdf:li>
									<rdf:li
   rdf:parseType="Resource">
										<xmpG:swatchName>R=83 G=71 B=65</xmpG:swatchName>
										<xmpG:mode>RGB</xmpG:mode>
										<xmpG:type>PROCESS</xmpG:type>
										<xmpG:red>83</xmpG:red>
										<xmpG:green>71</xmpG:green>
										<xmpG:blue>65</xmpG:blue>
									</rdf:li>
									<rdf:li
   rdf:parseType="Resource">
										<xmpG:swatchName>R=198 G=156 B=109</xmpG:swatchName>
										<xmpG:mode>RGB</xmpG:mode>
										<xmpG:type>PROCESS</xmpG:type>
										<xmpG:red>198</xmpG:red>
										<xmpG:green>156</xmpG:green>
										<xmpG:blue>109</xmpG:blue>
									</rdf:li>
									<rdf:li
   rdf:parseType="Resource">
										<xmpG:swatchName>R=166 G=124 B=82</xmpG:swatchName>
										<xmpG:mode>RGB</xmpG:mode>
										<xmpG:type>PROCESS</xmpG:type>
										<xmpG:red>166</xmpG:red>
										<xmpG:green>124</xmpG:green>
										<xmpG:blue>82</xmpG:blue>
									</rdf:li>
									<rdf:li
   rdf:parseType="Resource">
										<xmpG:swatchName>R=140 G=98 B=57</xmpG:swatchName>
										<xmpG:mode>RGB</xmpG:mode>
										<xmpG:type>PROCESS</xmpG:type>
										<xmpG:red>140</xmpG:red>
										<xmpG:green>98</xmpG:green>
										<xmpG:blue>57</xmpG:blue>
									</rdf:li>
									<rdf:li
   rdf:parseType="Resource">
										<xmpG:swatchName>R=117 G=76 B=36</xmpG:swatchName>
										<xmpG:mode>RGB</xmpG:mode>
										<xmpG:type>PROCESS</xmpG:type>
										<xmpG:red>117</xmpG:red>
										<xmpG:green>76</xmpG:green>
										<xmpG:blue>36</xmpG:blue>
									</rdf:li>
									<rdf:li
   rdf:parseType="Resource">
										<xmpG:swatchName>R=96 G=56 B=19</xmpG:swatchName>
										<xmpG:mode>RGB</xmpG:mode>
										<xmpG:type>PROCESS</xmpG:type>
										<xmpG:red>96</xmpG:red>
										<xmpG:green>56</xmpG:green>
										<xmpG:blue>19</xmpG:blue>
									</rdf:li>
									<rdf:li
   rdf:parseType="Resource">
										<xmpG:swatchName>R=66 G=33 B=11</xmpG:swatchName>
										<xmpG:mode>RGB</xmpG:mode>
										<xmpG:type>PROCESS</xmpG:type>
										<xmpG:red>66</xmpG:red>
										<xmpG:green>33</xmpG:green>
										<xmpG:blue>11</xmpG:blue>
									</rdf:li>
								</rdf:Seq>
							</xmpG:Colorants>
						</rdf:li>
						<rdf:li
   rdf:parseType="Resource">
							<xmpG:groupName>Grays</xmpG:groupName>
							<xmpG:groupType>0</xmpG:groupType>
							<xmpG:Colorants>
								<rdf:Seq>
									<rdf:li
   rdf:parseType="Resource">
										<xmpG:swatchName>R=0 G=0 B=0</xmpG:swatchName>
										<xmpG:mode>RGB</xmpG:mode>
										<xmpG:type>PROCESS</xmpG:type>
										<xmpG:red>0</xmpG:red>
										<xmpG:green>0</xmpG:green>
										<xmpG:blue>0</xmpG:blue>
									</rdf:li>
									<rdf:li
   rdf:parseType="Resource">
										<xmpG:swatchName>R=26 G=26 B=26</xmpG:swatchName>
										<xmpG:mode>RGB</xmpG:mode>
										<xmpG:type>PROCESS</xmpG:type>
										<xmpG:red>26</xmpG:red>
										<xmpG:green>26</xmpG:green>
										<xmpG:blue>26</xmpG:blue>
									</rdf:li>
									<rdf:li
   rdf:parseType="Resource">
										<xmpG:swatchName>R=51 G=51 B=51</xmpG:swatchName>
										<xmpG:mode>RGB</xmpG:mode>
										<xmpG:type>PROCESS</xmpG:type>
										<xmpG:red>51</xmpG:red>
										<xmpG:green>51</xmpG:green>
										<xmpG:blue>51</xmpG:blue>
									</rdf:li>
									<rdf:li
   rdf:parseType="Resource">
										<xmpG:swatchName>R=77 G=77 B=77</xmpG:swatchName>
										<xmpG:mode>RGB</xmpG:mode>
										<xmpG:type>PROCESS</xmpG:type>
										<xmpG:red>77</xmpG:red>
										<xmpG:green>77</xmpG:green>
										<xmpG:blue>77</xmpG:blue>
									</rdf:li>
									<rdf:li
   rdf:parseType="Resource">
										<xmpG:swatchName>R=102 G=102 B=102</xmpG:swatchName>
										<xmpG:mode>RGB</xmpG:mode>
										<xmpG:type>PROCESS</xmpG:type>
										<xmpG:red>102</xmpG:red>
										<xmpG:green>102</xmpG:green>
										<xmpG:blue>102</xmpG:blue>
									</rdf:li>
									<rdf:li
   rdf:parseType="Resource">
										<xmpG:swatchName>R=128 G=128 B=128</xmpG:swatchName>
										<xmpG:mode>RGB</xmpG:mode>
										<xmpG:type>PROCESS</xmpG:type>
										<xmpG:red>128</xmpG:red>
										<xmpG:green>128</xmpG:green>
										<xmpG:blue>128</xmpG:blue>
									</rdf:li>
									<rdf:li
   rdf:parseType="Resource">
										<xmpG:swatchName>R=153 G=153 B=153</xmpG:swatchName>
										<xmpG:mode>RGB</xmpG:mode>
										<xmpG:type>PROCESS</xmpG:type>
										<xmpG:red>153</xmpG:red>
										<xmpG:green>153</xmpG:green>
										<xmpG:blue>153</xmpG:blue>
									</rdf:li>
									<rdf:li
   rdf:parseType="Resource">
										<xmpG:swatchName>R=179 G=179 B=179</xmpG:swatchName>
										<xmpG:mode>RGB</xmpG:mode>
										<xmpG:type>PROCESS</xmpG:type>
										<xmpG:red>179</xmpG:red>
										<xmpG:green>179</xmpG:green>
										<xmpG:blue>179</xmpG:blue>
									</rdf:li>
									<rdf:li
   rdf:parseType="Resource">
										<xmpG:swatchName>R=204 G=204 B=204</xmpG:swatchName>
										<xmpG:mode>RGB</xmpG:mode>
										<xmpG:type>PROCESS</xmpG:type>
										<xmpG:red>204</xmpG:red>
										<xmpG:green>204</xmpG:green>
										<xmpG:blue>204</xmpG:blue>
									</rdf:li>
									<rdf:li
   rdf:parseType="Resource">
										<xmpG:swatchName>R=230 G=230 B=230</xmpG:swatchName>
										<xmpG:mode>RGB</xmpG:mode>
										<xmpG:type>PROCESS</xmpG:type>
										<xmpG:red>230</xmpG:red>
										<xmpG:green>230</xmpG:green>
										<xmpG:blue>230</xmpG:blue>
									</rdf:li>
									<rdf:li
   rdf:parseType="Resource">
										<xmpG:swatchName>R=242 G=242 B=242</xmpG:swatchName>
										<xmpG:mode>RGB</xmpG:mode>
										<xmpG:type>PROCESS</xmpG:type>
										<xmpG:red>242</xmpG:red>
										<xmpG:green>242</xmpG:green>
										<xmpG:blue>242</xmpG:blue>
									</rdf:li>
								</rdf:Seq>
							</xmpG:Colorants>
						</rdf:li>
						<rdf:li
   rdf:parseType="Resource">
							<xmpG:groupName>Web Color Group</xmpG:groupName>
							<xmpG:groupType>0</xmpG:groupType>
							<xmpG:Colorants>
								<rdf:Seq>
									<rdf:li
   rdf:parseType="Resource">
										<xmpG:swatchName>R=63 G=169 B=245</xmpG:swatchName>
										<xmpG:mode>RGB</xmpG:mode>
										<xmpG:type>PROCESS</xmpG:type>
										<xmpG:red>63</xmpG:red>
										<xmpG:green>169</xmpG:green>
										<xmpG:blue>245</xmpG:blue>
									</rdf:li>
									<rdf:li
   rdf:parseType="Resource">
										<xmpG:swatchName>R=122 G=201 B=67</xmpG:swatchName>
										<xmpG:mode>RGB</xmpG:mode>
										<xmpG:type>PROCESS</xmpG:type>
										<xmpG:red>122</xmpG:red>
										<xmpG:green>201</xmpG:green>
										<xmpG:blue>67</xmpG:blue>
									</rdf:li>
									<rdf:li
   rdf:parseType="Resource">
										<xmpG:swatchName>R=255 G=147 B=30</xmpG:swatchName>
										<xmpG:mode>RGB</xmpG:mode>
										<xmpG:type>PROCESS</xmpG:type>
										<xmpG:red>255</xmpG:red>
										<xmpG:green>147</xmpG:green>
										<xmpG:blue>30</xmpG:blue>
									</rdf:li>
									<rdf:li
   rdf:parseType="Resource">
										<xmpG:swatchName>R=255 G=29 B=37</xmpG:swatchName>
										<xmpG:mode>RGB</xmpG:mode>
										<xmpG:type>PROCESS</xmpG:type>
										<xmpG:red>255</xmpG:red>
										<xmpG:green>29</xmpG:green>
										<xmpG:blue>37</xmpG:blue>
									</rdf:li>
									<rdf:li
   rdf:parseType="Resource">
										<xmpG:swatchName>R=255 G=123 B=172</xmpG:swatchName>
										<xmpG:mode>RGB</xmpG:mode>
										<xmpG:type>PROCESS</xmpG:type>
										<xmpG:red>255</xmpG:red>
										<xmpG:green>123</xmpG:green>
										<xmpG:blue>172</xmpG:blue>
									</rdf:li>
									<rdf:li
   rdf:parseType="Resource">
										<xmpG:swatchName>R=189 G=204 B=212</xmpG:swatchName>
										<xmpG:mode>RGB</xmpG:mode>
										<xmpG:type>PROCESS</xmpG:type>
										<xmpG:red>189</xmpG:red>
										<xmpG:green>204</xmpG:green>
										<xmpG:blue>212</xmpG:blue>
									</rdf:li>
								</rdf:Seq>
							</xmpG:Colorants>
						</rdf:li>
					</rdf:Seq>
				</xmpTPg:SwatchGroups>
				<pdf:Producer>Adobe PDF library 15.00</pdf:Producer>
				<pdfx:CreatorVersion>21.0.0</pdfx:CreatorVersion>
			</rdf:Description>
		<cc:Work
   rdf:about=""><dc:format>image/svg+xml</dc:format><dc:type
     rdf:resource="http://purl.org/dc/dcmitype/StillImage" /><dc:title></dc:title></cc:Work></rdf:RDF></metadata></x:xmpmeta>
	<ns:sfw>
		<ns:slices />
		<ns:sliceSourceBounds
   bottomLeftOrigin="true"
   height="528.4"
   width="669.8"
   x="879"
   y="299" />
	</ns:sfw>
</metadata>
<g
   id="g4050">
	
		<ellipse
   id="Base_ellipse"
   transform="matrix(1 -5.421953e-03 5.421953e-03 1 -3.1674 6.5904)"
   class="st0"
   cx="1213.9"
   cy="587.5"
   rx="334.4"
   ry="193" />
	<g
   id="Base_shadow"
   class="st1">
		
			<image
   sodipodi:absref="C:\Users\tonem\Pictures\Connect\Animation\B92AA21E.png"
   xlink:href="B92AA21E.png"
   id="image3890"
   transform="matrix(0.4787 0 0 0.4787 973.0236 420.7461)"
   height="696"
   width="1094"
   style="overflow:visible;enable-background:new    ;">
		</image>
	</g>
	<rect
   id="Lap_1_"
   x="1457.5"
   y="549.4"
   class="st2"
   width="3"
   height="6" />
	<path
   id="Laptop_Screen"
   class="st3"
   d="M1279.3,457.7l-269.8,155.8c-3.2,1.9-5.8-0.1-5.8-4.4V420.2c0-4.3,2.6-9.2,5.8-11.1   l269.8-155.8c3.2-1.9,5.8,0.1,5.8,4.4v188.8C1285.1,450.8,1282.5,455.8,1279.3,457.7z" />
	<rect
   id="Lap"
   x="1009.5"
   y="609.4"
   class="st2"
   width="3"
   height="6" />
	<path
   id="Laptop_base"
   class="st2"
   d="M1458.4,558.6l-269.9,155.8c-3.2,1.9-8.8,1.6-12.5-0.5l-163.5-94.5c-3.7-2.1-4.1-5.4-0.9-7.2   l269.9-155.8c3.2-1.9,8.8-1.6,12.5,0.5l163.5,94.5C1461.2,553.5,1461.6,556.7,1458.4,558.6z" />
	<path
   class="st4"
   d="M1458.4,552.6l-269.9,155.8c-3.2,1.9-8.8,1.6-12.5-0.5l-163.5-94.5c-3.7-2.1-4.1-5.4-0.9-7.2l269.9-155.8   c3.2-1.9,8.8-1.6,12.5,0.5l163.5,94.5C1461.2,547.5,1461.6,550.7,1458.4,552.6z"
   id="path3897" />
	<path
   class="st4"
   d="M1351.1,617.2l-59.3,34.2c-1.8,1-4.1,1-5.9,0l-32.2-18.6c-3.9-2.3-3.9-7.9,0-10.2l59.3-34.2c1.8-1,4.1-1,5.9,0   l32.2,18.6C1355.1,609.2,1355.1,614.9,1351.1,617.2z"
   id="path3899" />
	<path
   class="st5"
   d="M1351.1,617.2l-59.3,34.2c-1.8,1-4.1,1-5.9,0l-32.2-18.6c-3.9-2.3-3.9-7.9,0-10.2l59.3-34.2c1.8-1,4.1-1,5.9,0   l32.2,18.6C1355.1,609.2,1355.1,614.9,1351.1,617.2z"
   id="path3901" />
	<g
   id="g3905">
		<path
   class="st6"
   d="M1026.3,625.9l-8.5-4.9c-0.6-0.3-1.1-1.2-1.1-2l0,0c0-0.8,0.5-1.1,1.1-0.8l8.5,4.9c0.6,0.3,1.1,1.2,1.1,2l0,0    C1027.4,625.9,1026.9,626.3,1026.3,625.9z"
   id="path3903" />
	</g>
	<g
   id="g3909">
		<path
   class="st6"
   d="M1014.1,618l-0.2-0.1c-0.4-0.2-0.7-0.8-0.7-1.3l0,0c0-0.5,0.3-0.7,0.7-0.5l0.2,0.1c0.4,0.2,0.7,0.8,0.7,1.3    l0,0C1014.7,618,1014.4,618.2,1014.1,618z"
   id="path3907" />
	</g>
	<g
   id="Keys">
		<g
   id="g3937">
			<path
   class="st7"
   d="M1277.6,483.7l-12.5,7.2c-1.3,0.8-3.7,0.7-5.2-0.2l-3.9-2.3c-1.5-0.9-1.7-2.2-0.4-3l12.5-7.2     c1.3-0.8,3.7-0.7,5.2,0.2l3.9,2.3C1278.8,481.6,1278.9,483,1277.6,483.7z"
   id="path3911" />
			<path
   class="st7"
   d="M1258.3,494.9l-12.5,7.2c-1.3,0.8-3.7,0.7-5.2-0.2l-3.9-2.3c-1.5-0.9-1.7-2.2-0.4-3l12.5-7.2     c1.3-0.8,3.7-0.7,5.2,0.2l3.9,2.3C1259.4,492.8,1259.6,494.1,1258.3,494.9z"
   id="path3913" />
			<path
   class="st7"
   d="M1238.9,506.1l-12.5,7.2c-1.3,0.8-3.7,0.7-5.2-0.2l-3.9-2.3c-1.5-0.9-1.7-2.2-0.4-3l12.5-7.2     c1.3-0.8,3.7-0.7,5.2,0.2l3.9,2.3C1240.1,503.9,1240.2,505.3,1238.9,506.1z"
   id="path3915" />
			<path
   class="st7"
   d="M1219.6,517.2l-12.5,7.2c-1.3,0.8-3.7,0.7-5.2-0.2l-3.9-2.3c-1.5-0.9-1.7-2.2-0.4-3l12.5-7.2     c1.3-0.8,3.7-0.7,5.2,0.2l3.9,2.3C1220.7,515.1,1220.9,516.5,1219.6,517.2z"
   id="path3917" />
			<path
   class="st7"
   d="M1200.2,528.4l-12.5,7.2c-1.3,0.8-3.7,0.7-5.2-0.2l-3.9-2.3c-1.5-0.9-1.7-2.2-0.4-3l12.5-7.2     c1.3-0.8,3.7-0.7,5.2,0.2l3.9,2.3C1201.4,526.3,1201.6,527.6,1200.2,528.4z"
   id="path3919" />
			<path
   class="st7"
   d="M1180.9,539.6l-12.5,7.2c-1.3,0.8-3.7,0.7-5.2-0.2l-3.9-2.3c-1.5-0.9-1.7-2.2-0.4-3l12.5-7.2     c1.3-0.8,3.7-0.7,5.2,0.2l3.9,2.3C1182.1,537.4,1182.2,538.8,1180.9,539.6z"
   id="path3921" />
			<path
   class="st7"
   d="M1161.6,550.7l-12.5,7.2c-1.3,0.8-3.7,0.7-5.2-0.2l-3.9-2.3c-1.5-0.9-1.7-2.2-0.4-3l12.5-7.2     c1.3-0.8,3.7-0.7,5.2,0.2l3.9,2.3C1162.7,548.6,1162.9,550,1161.6,550.7z"
   id="path3923" />
			<path
   class="st7"
   d="M1142.2,561.9l-12.5,7.2c-1.3,0.8-3.7,0.7-5.2-0.2l-3.9-2.3c-1.5-0.9-1.7-2.2-0.4-3l12.5-7.2     c1.3-0.8,3.7-0.7,5.2,0.2l3.9,2.3C1143.4,559.8,1143.5,561.1,1142.2,561.9z"
   id="path3925" />
			<path
   class="st7"
   d="M1122.9,573.1l-12.5,7.2c-1.3,0.8-3.7,0.7-5.2-0.2l-3.9-2.3c-1.5-0.9-1.7-2.2-0.4-3l12.5-7.2     c1.3-0.8,3.7-0.7,5.2,0.2l3.9,2.3C1124,570.9,1124.2,572.3,1122.9,573.1z"
   id="path3927" />
			<path
   class="st7"
   d="M1103.5,584.2l-12.5,7.2c-1.3,0.8-3.7,0.7-5.2-0.2l-3.9-2.3c-1.5-0.9-1.7-2.2-0.4-3l12.5-7.2     c1.3-0.8,3.7-0.7,5.2,0.2l3.9,2.3C1104.7,582.1,1104.9,583.5,1103.5,584.2z"
   id="path3929" />
			<path
   class="st7"
   d="M1084.2,595.4l-12.5,7.2c-1.3,0.8-3.7,0.7-5.2-0.2l-3.9-2.3c-1.5-0.9-1.7-2.2-0.4-3l12.5-7.2     c1.3-0.8,3.7-0.7,5.2,0.2l3.9,2.3C1085.4,593.3,1085.5,594.6,1084.2,595.4z"
   id="path3931" />
			<path
   class="st7"
   d="M1064.8,606.6l-12.5,7.2c-1.3,0.8-3.7,0.7-5.2-0.2l-3.9-2.3c-1.5-0.9-1.7-2.2-0.4-3l12.5-7.2     c1.3-0.8,3.7-0.7,5.2,0.2l3.9,2.3C1066,604.4,1066.2,605.8,1064.8,606.6z"
   id="path3933" />
			<path
   class="st7"
   d="M1296.9,472.6l-12.5,7.2c-1.3,0.8-3.7,0.7-5.2-0.2l-3.9-2.3c-1.5-0.9-1.7-2.2-0.4-3l12.5-7.2     c1.3-0.8,3.7-0.7,5.2,0.2l3.9,2.3C1298.1,470.4,1298.3,471.8,1296.9,472.6z"
   id="path3935" />
		</g>
		<g
   id="g3963">
			<path
   class="st7"
   d="M1263.5,511l-12.5,7.2c-1.3,0.8-3.7,0.7-5.2-0.2l-7.3-4.2c-1.5-0.9-1.7-2.2-0.4-3l12.5-7.2     c1.3-0.8,3.7-0.7,5.2,0.2l7.3,4.2C1264.7,508.9,1264.8,510.2,1263.5,511z"
   id="path3939" />
			<path
   class="st7"
   d="M1243.3,522.7l-12.5,7.2c-1.3,0.8-3.7,0.7-5.2-0.2l-7.3-4.2c-1.5-0.9-1.7-2.2-0.4-3l12.5-7.2     c1.3-0.8,3.7-0.7,5.2,0.2l7.3,4.2C1244.4,520.6,1244.6,521.9,1243.3,522.7z"
   id="path3941" />
			<path
   class="st7"
   d="M1313.6,482.1l-22.2,12.8c-1.3,0.7-3.5,0.7-5-0.2l-7.5-4.3c-1.5-0.9-1.7-2.2-0.4-2.9l22.2-12.8     c1.3-0.7,3.5-0.7,5,0.2l7.5,4.3C1314.7,480,1314.9,481.3,1313.6,482.1z"
   id="path3943" />
			<path
   class="st7"
   d="M1223,534.3l-12.5,7.2c-1.3,0.8-3.7,0.7-5.2-0.2l-7.3-4.2c-1.5-0.9-1.7-2.2-0.4-3l12.5-7.2     c1.3-0.8,3.7-0.7,5.2,0.2l7.3,4.2C1224.2,532.2,1224.4,533.6,1223,534.3z"
   id="path3945" />
			<path
   class="st7"
   d="M1202.8,546l-12.5,7.2c-1.3,0.8-3.7,0.7-5.2-0.2l-7.3-4.2c-1.5-0.9-1.7-2.2-0.4-3l12.5-7.2     c1.3-0.8,3.7-0.7,5.2,0.2l7.3,4.2C1204,543.9,1204.1,545.3,1202.8,546z"
   id="path3947" />
			<path
   class="st7"
   d="M1182.6,557.7l-12.5,7.2c-1.3,0.8-3.7,0.7-5.2-0.2l-7.3-4.2c-1.5-0.9-1.7-2.2-0.4-3l12.5-7.2     c1.3-0.8,3.7-0.7,5.2,0.2l7.3,4.2C1183.7,555.6,1183.9,556.9,1182.6,557.7z"
   id="path3949" />
			<path
   class="st7"
   d="M1162.3,569.4l-12.5,7.2c-1.3,0.8-3.7,0.7-5.2-0.2l-7.3-4.2c-1.5-0.9-1.7-2.2-0.4-3l12.5-7.2     c1.3-0.8,3.7-0.7,5.2,0.2l7.3,4.2C1163.5,567.3,1163.7,568.6,1162.3,569.4z"
   id="path3951" />
			<path
   class="st7"
   d="M1142.1,581.1l-12.5,7.2c-1.3,0.8-3.7,0.7-5.2-0.2l-7.3-4.2c-1.5-0.9-1.7-2.2-0.4-3l12.5-7.2     c1.3-0.8,3.7-0.7,5.2,0.2l7.3,4.2C1143.3,579,1143.4,580.3,1142.1,581.1z"
   id="path3953" />
			<path
   class="st7"
   d="M1121.9,592.8l-12.5,7.2c-1.3,0.8-3.7,0.7-5.2-0.2l-7.3-4.2c-1.5-0.9-1.7-2.2-0.4-3l12.5-7.2     c1.3-0.8,3.7-0.7,5.2,0.2l7.3,4.2C1123,590.6,1123.2,592,1121.9,592.8z"
   id="path3955" />
			<path
   class="st7"
   d="M1101.6,604.4l-12.5,7.2c-1.3,0.8-3.7,0.7-5.2-0.2l-7.3-4.2c-1.5-0.9-1.7-2.2-0.4-3l12.5-7.2     c1.3-0.8,3.7-0.7,5.2,0.2l7.3,4.2C1102.8,602.3,1103,603.7,1101.6,604.4z"
   id="path3957" />
			<path
   class="st7"
   d="M1081.4,616.1l-12.5,7.2c-1.3,0.8-3.7,0.7-5.2-0.2l-7.3-4.2c-1.5-0.9-1.7-2.2-0.4-3l12.5-7.2     c1.3-0.8,3.7-0.7,5.2,0.2l7.3,4.2C1082.6,614,1082.7,615.3,1081.4,616.1z"
   id="path3959" />
			<path
   class="st7"
   d="M1283.7,499.3l-12.5,7.2c-1.3,0.8-3.7,0.7-5.2-0.2l-7.3-4.2c-1.5-0.9-1.7-2.2-0.4-3l12.5-7.2     c1.3-0.8,3.7-0.7,5.2,0.2l7.3,4.2C1284.9,497.2,1285.1,498.5,1283.7,499.3z"
   id="path3961" />
		</g>
		<g
   id="g3987">
			<path
   class="st7"
   d="M1294.2,512.4l-12.5,7.2c-1.3,0.8-3.7,0.7-5.2-0.2l-7.3-4.2c-1.5-0.9-1.7-2.2-0.4-3l12.5-7.2     c1.3-0.8,3.7-0.7,5.2,0.2l7.3,4.2C1295.4,510.3,1295.6,511.6,1294.2,512.4z"
   id="path3965" />
			<path
   class="st7"
   d="M1273.1,524.6l-12.5,7.2c-1.3,0.8-3.7,0.7-5.2-0.2l-7.3-4.2c-1.5-0.9-1.7-2.2-0.4-3l12.5-7.2     c1.3-0.8,3.7-0.7,5.2,0.2l7.3,4.2C1274.3,522.5,1274.4,523.8,1273.1,524.6z"
   id="path3967" />
			<path
   class="st7"
   d="M1330.1,491.6l-27.3,15.8c-1.3,0.7-3.6,0.7-5.1-0.2l-7.5-4.3c-1.5-0.9-1.7-2.2-0.4-2.9l27.3-15.8     c1.3-0.7,3.6-0.7,5.1,0.2l7.5,4.3C1331.3,489.6,1331.4,490.9,1330.1,491.6z"
   id="path3969" />
			<path
   class="st7"
   d="M1252,536.8l-12.5,7.2c-1.3,0.8-3.7,0.7-5.2-0.2l-7.3-4.2c-1.5-0.9-1.7-2.2-0.4-3l12.5-7.2     c1.3-0.8,3.7-0.7,5.2,0.2l7.3,4.2C1253.1,534.7,1253.3,536,1252,536.8z"
   id="path3971" />
			<path
   class="st7"
   d="M1230.8,549l-12.5,7.2c-1.3,0.8-3.7,0.7-5.2-0.2l-7.3-4.2c-1.5-0.9-1.7-2.2-0.4-3l12.5-7.2     c1.3-0.8,3.7-0.7,5.2,0.2l7.3,4.2C1232,546.9,1232.2,548.2,1230.8,549z"
   id="path3973" />
			<path
   class="st7"
   d="M1209.7,561.2l-12.5,7.2c-1.3,0.8-3.7,0.7-5.2-0.2l-7.3-4.2c-1.5-0.9-1.7-2.2-0.4-3l12.5-7.2     c1.3-0.8,3.7-0.7,5.2,0.2l7.3,4.2C1210.9,559.1,1211,560.4,1209.7,561.2z"
   id="path3975" />
			<path
   class="st7"
   d="M1188.6,573.4l-12.5,7.2c-1.3,0.8-3.7,0.7-5.2-0.2l-7.3-4.2c-1.5-0.9-1.7-2.2-0.4-3l12.5-7.2     c1.3-0.8,3.7-0.7,5.2,0.2l7.3,4.2C1189.7,571.3,1189.9,572.6,1188.6,573.4z"
   id="path3977" />
			<path
   class="st7"
   d="M1167.4,585.6l-12.5,7.2c-1.3,0.8-3.7,0.7-5.2-0.2l-7.3-4.2c-1.5-0.9-1.7-2.2-0.4-3l12.5-7.2     c1.3-0.8,3.7-0.7,5.2,0.2l7.3,4.2C1168.6,583.5,1168.8,584.8,1167.4,585.6z"
   id="path3979" />
			<path
   class="st7"
   d="M1146.3,597.8l-12.5,7.2c-1.3,0.8-3.7,0.7-5.2-0.2l-7.3-4.2c-1.5-0.9-1.7-2.2-0.4-3l12.5-7.2     c1.3-0.8,3.7-0.7,5.2,0.2l7.3,4.2C1147.5,595.7,1147.6,597,1146.3,597.8z"
   id="path3981" />
			<path
   class="st7"
   d="M1125.2,610l-12.5,7.2c-1.3,0.8-3.7,0.7-5.2-0.2l-7.3-4.2c-1.5-0.9-1.7-2.2-0.4-3l12.5-7.2     c1.3-0.8,3.7-0.7,5.2,0.2l7.3,4.2C1126.3,607.9,1126.5,609.2,1125.2,610z"
   id="path3983" />
			<path
   class="st7"
   d="M1104,622.2l-18.6,10.7c-1.3,0.8-3.7,0.7-5.2-0.2l-7.3-4.2c-1.5-0.9-1.7-2.2-0.4-3l18.6-10.7     c1.3-0.8,3.7-0.7,5.2,0.2l7.3,4.2C1105.2,620.1,1105.4,621.4,1104,622.2z"
   id="path3985" />
		</g>
		<g
   id="g4009">
			<path
   class="st7"
   d="M1303.1,526.4l-12.5,7.2c-1.3,0.8-3.7,0.7-5.2-0.2l-7.3-4.2c-1.5-0.9-1.7-2.2-0.4-3l12.5-7.2     c1.3-0.8,3.7-0.7,5.2,0.2l7.3,4.2C1304.2,524.3,1304.4,525.6,1303.1,526.4z"
   id="path3989" />
			<path
   class="st7"
   d="M1346.4,501.4l-34.6,20c-1.4,0.8-4,0.7-5.6-0.2l-6.9-4c-1.7-1-1.9-2.4-0.4-3.3l34.6-20     c1.4-0.8,4-0.7,5.6,0.2l6.9,4C1347.7,499.1,1347.9,500.5,1346.4,501.4z"
   id="path3991" />
			<path
   class="st7"
   d="M1282,538.6l-12.5,7.2c-1.3,0.8-3.7,0.7-5.2-0.2l-7.3-4.2c-1.5-0.9-1.7-2.2-0.4-3l12.5-7.2     c1.3-0.8,3.7-0.7,5.2,0.2l7.3,4.2C1283.1,536.5,1283.3,537.8,1282,538.6z"
   id="path3993" />
			<path
   class="st7"
   d="M1260.9,550.7l-12.5,7.2c-1.3,0.8-3.7,0.7-5.2-0.2l-7.3-4.2c-1.5-0.9-1.7-2.2-0.4-3l12.5-7.2     c1.3-0.8,3.7-0.7,5.2,0.2l7.3,4.2C1262.1,548.6,1262.2,550,1260.9,550.7z"
   id="path3995" />
			<path
   class="st7"
   d="M1239.8,562.9l-12.5,7.2c-1.3,0.8-3.7,0.7-5.2-0.2l-7.3-4.2c-1.5-0.9-1.7-2.2-0.4-3l12.5-7.2     c1.3-0.8,3.7-0.7,5.2,0.2l7.3,4.2C1241,560.8,1241.2,562.1,1239.8,562.9z"
   id="path3997" />
			<path
   class="st7"
   d="M1218.8,575.1l-12.5,7.2c-1.3,0.8-3.7,0.7-5.2-0.2l-7.3-4.2c-1.5-0.9-1.7-2.2-0.4-3l12.5-7.2     c1.3-0.8,3.7-0.7,5.2,0.2l7.3,4.2C1219.9,573,1220.1,574.3,1218.8,575.1z"
   id="path3999" />
			<path
   class="st7"
   d="M1197.7,587.2l-12.5,7.2c-1.3,0.8-3.7,0.7-5.2-0.2l-7.3-4.2c-1.5-0.9-1.7-2.2-0.4-3l12.5-7.2     c1.3-0.8,3.7-0.7,5.2,0.2l7.3,4.2C1198.9,585.1,1199,586.5,1197.7,587.2z"
   id="path4001" />
			<path
   class="st7"
   d="M1176.6,599.4l-12.5,7.2c-1.3,0.8-3.7,0.7-5.2-0.2l-7.3-4.2c-1.5-0.9-1.7-2.2-0.4-3l12.5-7.2     c1.3-0.8,3.7-0.7,5.2,0.2l7.3,4.2C1177.8,597.3,1177.9,598.6,1176.6,599.4z"
   id="path4003" />
			<path
   class="st7"
   d="M1155.5,611.6l-12.5,7.2c-1.3,0.8-3.7,0.7-5.2-0.2l-7.3-4.2c-1.5-0.9-1.7-2.2-0.4-3l12.5-7.2     c1.3-0.8,3.7-0.7,5.2,0.2l7.3,4.2C1156.7,609.5,1156.9,610.8,1155.5,611.6z"
   id="path4005" />
			<path
   class="st7"
   d="M1134.2,623.9l-31.9,18.4c-1.5,0.9-4.1,0.7-5.8-0.2l-6.7-3.9c-1.7-1-1.9-2.5-0.4-3.3l31.9-18.4     c1.5-0.9,4.1-0.7,5.8,0.2l6.7,3.9C1135.5,621.6,1135.7,623,1134.2,623.9z"
   id="path4007" />
		</g>
		<g
   id="g4035">
			<path
   class="st7"
   d="M1330.5,530.2l-12.5,7.2c-1.3,0.8-3.7,0.7-5.2-0.2l-7.3-4.2c-1.5-0.9-1.7-2.2-0.4-3l12.5-7.2     c1.3-0.8,3.7-0.7,5.2,0.2l7.3,4.2C1331.7,528.1,1331.8,529.5,1330.5,530.2z"
   id="path4011" />
			<path
   class="st7"
   d="M1309.6,542.3l-12.5,7.2c-1.3,0.8-3.7,0.7-5.2-0.2l-7.3-4.2c-1.5-0.9-1.7-2.2-0.4-3l12.5-7.2     c1.3-0.8,3.7-0.7,5.2,0.2l7.3,4.2C1310.7,540.2,1310.9,541.5,1309.6,542.3z"
   id="path4013" />
			<path
   class="st7"
   d="M1288.7,554.4l-12.5,7.2c-1.3,0.8-3.7,0.7-5.2-0.2l-7.3-4.2c-1.5-0.9-1.7-2.2-0.4-3l12.5-7.2     c1.3-0.8,3.7-0.7,5.2,0.2l7.3,4.2C1289.8,552.3,1290,553.6,1288.7,554.4z"
   id="path4015" />
			<path
   class="st7"
   d="M1267.7,566.5l-52,30c-1.3,0.8-3.7,0.7-5.2-0.2l-7.3-4.2c-1.5-0.9-1.7-2.2-0.4-3l52-30     c1.3-0.8,3.7-0.7,5.2,0.2l7.3,4.2C1268.9,564.4,1269.1,565.7,1267.7,566.5z"
   id="path4017" />
			<path
   class="st7"
   d="M1207.3,601.4l-12.5,7.2c-1.3,0.8-3.7,0.7-5.2-0.2l-7.3-4.2c-1.5-0.9-1.7-2.2-0.4-3l12.5-7.2     c1.3-0.8,3.7-0.7,5.2,0.2l7.3,4.2C1208.5,599.2,1208.7,600.6,1207.3,601.4z"
   id="path4019" />
			<path
   class="st7"
   d="M1186.4,613.4l-12.5,7.2c-1.3,0.8-3.7,0.7-5.2-0.2l-7.3-4.2c-1.5-0.9-1.7-2.2-0.4-3l12.5-7.2     c1.3-0.8,3.7-0.7,5.2,0.2l7.3,4.2C1187.6,611.3,1187.7,612.7,1186.4,613.4z"
   id="path4021" />
			<path
   class="st7"
   d="M1165.5,625.5l-12.5,7.2c-1.3,0.8-3.7,0.7-5.2-0.2l-7.3-4.2c-1.5-0.9-1.7-2.2-0.4-3l12.5-7.2     c1.3-0.8,3.7-0.7,5.2,0.2l7.3,4.2C1166.7,623.4,1166.8,624.7,1165.5,625.5z"
   id="path4023" />
			<path
   class="st7"
   d="M1144.6,637.6l-25.5,14.7c-1.3,0.8-3.7,0.7-5.2-0.2l-7.3-4.2c-1.5-0.9-1.7-2.2-0.4-3l25.5-14.7     c1.3-0.8,3.7-0.7,5.2,0.2l7.3,4.2C1145.7,635.5,1145.9,636.8,1144.6,637.6z"
   id="path4025" />
			<path
   class="st7"
   d="M1363.5,510.7l-9.5,5.5c-1.2,0.7-3.3,0.6-4.6-0.2l-7.9-4.6c-1.4-0.8-1.5-2-0.3-2.7l9.5-5.5     c1.2-0.7,3.3-0.6,4.6,0.2l7.9,4.6C1364.5,508.8,1364.7,510,1363.5,510.7z"
   id="path4027" />
			<g
   id="g4033">
				<path
   class="st7"
   d="M1340,516.3l-9.6,5.5c-0.7,0.4-1.9,0.4-2.7-0.1l-2.2-1.3c-0.8-0.5-0.9-1.2-0.2-1.6l9.6-5.5      c0.7-0.4,1.9-0.4,2.7,0.1l2.2,1.3C1340.6,515.1,1340.7,515.9,1340,516.3z"
   id="path4029" />
				<path
   class="st7"
   d="M1347.7,520.7l-9.6,5.5c-0.7,0.4-1.9,0.4-2.7-0.1l-2.2-1.3c-0.8-0.5-0.9-1.2-0.2-1.6l9.6-5.5      c0.7-0.4,1.9-0.4,2.7,0.1l2.2,1.3C1348.4,519.6,1348.5,520.3,1347.7,520.7z"
   id="path4031" />
			</g>
		</g>
	</g>
	<path
   class="st8"
   d="M1303.3,464.7l-269.8,155.8c-3.2,1.9-5.8-0.1-5.8-4.4V427.2c0-4.3,2.6-9.2,5.8-11.1l269.8-155.8   c3.2-1.9,5.8,0.1,5.8,4.4v188.8C1309.1,457.8,1306.5,462.8,1303.3,464.7z"
   id="path4038" />
	<path
   class="st8"
   d="M1317.3,471.7l-269.8,155.8c-3.2,1.9-5.8-0.1-5.8-4.4V434.2c0-4.3,2.6-9.2,5.8-11.1l269.8-155.8   c3.2-1.9,5.8,0.1,5.8,4.4v188.8C1323.1,464.8,1320.5,469.8,1317.3,471.7z"
   id="path4040" />
	<path
   class="st9"
   d="M1329.3,479.7l-269.8,155.8c-3.2,1.9-5.8-0.1-5.8-4.4V442.2c0-4.3,2.6-9.2,5.8-11.1l269.8-155.8   c3.2-1.9,5.8,0.1,5.8,4.4v188.8C1335.1,472.8,1332.5,477.8,1329.3,479.7z"
   id="path4042" />
	<g
   id="g4048">
		<path
   class="st10"
   d="M1159.2,503.1l-40.4,23.3c-2.3,1.3-4.1-0.1-4.1-3.1v-49.7c0-3,1.8-6.5,4.1-7.9l40.4-23.3    c2.3-1.3,4.1,0.1,4.1,3.1v49.7C1163.3,498.2,1161.5,501.7,1159.2,503.1z"
   id="path4044" />
		<path
   class="st11"
   d="M1144.2,482.1c-0.9-3-3.2-4.2-3.1-9c0-2.5,0.7-4.9,1.3-6.5c-0.6,0.4-1.3,0.7-1.9,1.1    c-1.3,0.7-2.5,1.4-3.8,2.2c-0.6,0.4-1.3,0.7-1.9,1.1c0.5,1,1.2,2.6,1.3,5c0.1,4.7-2.2,8.6-3.1,12.6c-0.8,3.5-0.8,8.3,3.1,13.3    c0.2-0.1,0.4-0.2,0.6-0.4c1.3-0.7,2.5-1.4,3.8-2.2c0.2-0.1,0.4-0.2,0.6-0.4C1145,489.4,1145,484.7,1144.2,482.1z"
   id="path4046" />
	</g>
</g>
</svg>